<svg width="48" height="48" viewBox="0 0 48 48" fill="none" xmlns="http://www.w3.org/2000/svg">
<rect width="48" height="48" rx="24" fill="#F97316" fill-opacity="0.1"/>
<path d="M33.4125 26.25L26.2625 33.4C26.0625 33.6 25.8375 33.75 25.5875 33.85C25.3375 33.95 25.0875 34 24.8375 34C24.5875 34 24.3375 33.95 24.0875 33.85C23.8375 33.75 23.6125 33.6 23.4125 33.4L14.5875 24.575C14.4041 24.3917 14.2625 24.1792 14.1625 23.9375C14.0625 23.6958 14.0125 23.4417 14.0125 23.175V16C14.0125 15.45 14.2083 14.9792 14.6 14.5875C14.9916 14.1958 15.4625 14 16.0125 14H23.1875C23.4541 14 23.7125 14.0542 23.9625 14.1625C24.2125 14.2708 24.4291 14.4167 24.6125 14.6L33.4125 23.425C33.6125 23.625 33.7583 23.85 33.85 24.1C33.9416 24.35 33.9875 24.6 33.9875 24.85C33.9875 25.1 33.9416 25.3458 33.85 25.5875C33.7583 25.8292 33.6125 26.05 33.4125 26.25ZM24.8375 32L31.9875 24.85L23.1625 16H16.0125V23.15L24.8375 32ZM18.5125 20C18.9291 20 19.2833 19.8542 19.575 19.5625C19.8666 19.2708 20.0125 18.9167 20.0125 18.5C20.0125 18.0833 19.8666 17.7292 19.575 17.4375C19.2833 17.1458 18.9291 17 18.5125 17C18.0958 17 17.7416 17.1458 17.45 17.4375C17.1583 17.7292 17.0125 18.0833 17.0125 18.5C17.0125 18.9167 17.1583 19.2708 17.45 19.5625C17.7416 19.8542 18.0958 20 18.5125 20Z" fill="#FB923C"/>
</svg>
