<svg width="20" height="20" viewBox="0 0 24 24" fill="none" xmlns="http://www.w3.org/2000/svg">
    <path d="M17 11C17.34 11 17.67 11.03 18 11.08V6.27L10.5 3L3 6.27V11.18C3 15.72 6.2 19.97 10.5 21C11.05 20.87 11.58 20.68 12.08 20.45C11.4 19.46 11 18.27 11 17C11 13.69 13.69 11 17 11ZM10.5 12.5H10C8.62 12.5 7.5 11.38 7.5 10C7.5 8.62 8.62 7.5 10 7.5C11.38 7.5 12.5 8.62 12.5 10C12.5 10.48 12.36 10.93 12.13 11.31C11.48 11.61 10.93 12.01 10.5 12.5ZM10 9.5C9.72 9.5 9.5 9.72 9.5 10C9.5 10.28 9.72 10.5 10 10.5C10.28 10.5 10.5 10.28 10.5 10C10.5 9.72 10.28 9.5 10 9.5ZM17 13C14.79 13 13 14.79 13 17C13 19.21 14.79 21 17 21C19.21 21 21 19.21 21 17C21 14.79 19.21 13 17 13ZM17 14.25C17.69 14.25 18.25 14.81 18.25 15.5C18.25 16.19 17.69 16.75 17 16.75C16.31 16.75 15.75 16.19 15.75 15.5C15.75 14.81 16.31 14.25 17 14.25ZM17 19.75C16.1 19.75 15.31 19.35 14.78 18.72C14.88 17.9 16.45 17.5 17 17.5C17.55 17.5 19.12 17.9 19.22 18.72C18.69 19.35 17.9 19.75 17 19.75Z" fill="#64748B"/>
</svg>
