<svg width="191" height="43" viewBox="0 0 191 43" fill="none" xmlns="http://www.w3.org/2000/svg">
<rect y="1.5" width="40" height="40" rx="20" fill="#22B1EC"/>
<path d="M14 27.5V28.5C14 28.7833 13.9042 29.0208 13.7125 29.2125C13.5208 29.4042 13.2833 29.5 13 29.5H12C11.7167 29.5 11.4792 29.4042 11.2875 29.2125C11.0958 29.0208 11 28.7833 11 28.5V20.5L13.1 14.5C13.2 14.2 13.3792 13.9583 13.6375 13.775C13.8958 13.5917 14.1833 13.5 14.5 13.5H25.5C25.8167 13.5 26.1042 13.5917 26.3625 13.775C26.6208 13.9583 26.8 14.2 26.9 14.5L29 20.5V28.5C29 28.7833 28.9042 29.0208 28.7125 29.2125C28.5208 29.4042 28.2833 29.5 28 29.5H27C26.7167 29.5 26.4792 29.4042 26.2875 29.2125C26.0958 29.0208 26 28.7833 26 28.5V27.5H14ZM13.8 18.5H26.2L25.15 15.5H14.85L13.8 18.5ZM13 20.5V25.5V20.5ZM15.5 24.5C15.9167 24.5 16.2708 24.3542 16.5625 24.0625C16.8542 23.7708 17 23.4167 17 23C17 22.5833 16.8542 22.2292 16.5625 21.9375C16.2708 21.6458 15.9167 21.5 15.5 21.5C15.0833 21.5 14.7292 21.6458 14.4375 21.9375C14.1458 22.2292 14 22.5833 14 23C14 23.4167 14.1458 23.7708 14.4375 24.0625C14.7292 24.3542 15.0833 24.5 15.5 24.5ZM24.5 24.5C24.9167 24.5 25.2708 24.3542 25.5625 24.0625C25.8542 23.7708 26 23.4167 26 23C26 22.5833 25.8542 22.2292 25.5625 21.9375C25.2708 21.6458 24.9167 21.5 24.5 21.5C24.0833 21.5 23.7292 21.6458 23.4375 21.9375C23.1458 22.2292 23 22.5833 23 23C23 23.4167 23.1458 23.7708 23.4375 24.0625C23.7292 24.3542 24.0833 24.5 24.5 24.5ZM13 25.5H27V20.5H13V25.5Z" fill="#002B3D"/>
<path d="M58.64 21.28C56.9067 21.28 55.5333 20.7967 54.52 19.83C53.5067 18.8633 53 17.48 53 15.68V12.32C53 10.52 53.5067 9.13667 54.52 8.17C55.5333 7.20333 56.9067 6.72 58.64 6.72C60.36 6.72 61.69 7.19 62.63 8.13C63.57 9.07 64.04 10.36 64.04 12V12.12H61.44V11.92C61.44 11.0933 61.21 10.4133 60.75 9.88C60.29 9.34667 59.5867 9.08 58.64 9.08C57.7067 9.08 56.9733 9.36667 56.44 9.94C55.9067 10.5133 55.64 11.2933 55.64 12.28V15.72C55.64 16.6933 55.9067 17.47 56.44 18.05C56.9733 18.63 57.7067 18.92 58.64 18.92C59.5867 18.92 60.29 18.65 60.75 18.11C61.21 17.57 61.44 16.8933 61.44 16.08V15.72H64.04V16C64.04 17.64 63.57 18.93 62.63 19.87C61.69 20.81 60.36 21.28 58.64 21.28ZM73.64 21.28C71.88 21.28 70.48 20.7967 69.44 19.83C68.4 18.8633 67.88 17.48 67.88 15.68V12.32C67.88 10.52 68.4 9.13667 69.44 8.17C70.48 7.20333 71.88 6.72 73.64 6.72C75.4 6.72 76.8 7.20333 77.84 8.17C78.88 9.13667 79.4 10.52 79.4 12.32V15.68C79.4 17.48 78.88 18.8633 77.84 19.83C76.8 20.7967 75.4 21.28 73.64 21.28ZM73.64 18.92C74.6267 18.92 75.3933 18.6333 75.94 18.06C76.4867 17.4867 76.76 16.72 76.76 15.76V12.24C76.76 11.28 76.4867 10.5133 75.94 9.94C75.3933 9.36667 74.6267 9.08 73.64 9.08C72.6667 9.08 71.9033 9.36667 71.35 9.94C70.7967 10.5133 70.52 11.28 70.52 12.24V15.76C70.52 16.72 70.7967 17.4867 71.35 18.06C71.9033 18.6333 72.6667 18.92 73.64 18.92ZM89.04 21.28C87.3067 21.28 85.9333 20.7967 84.92 19.83C83.9067 18.8633 83.4 17.48 83.4 15.68V12.32C83.4 10.52 83.9067 9.13667 84.92 8.17C85.9333 7.20333 87.3067 6.72 89.04 6.72C90.76 6.72 92.09 7.19 93.03 8.13C93.97 9.07 94.44 10.36 94.44 12V12.12H91.84V11.92C91.84 11.0933 91.61 10.4133 91.15 9.88C90.69 9.34667 89.9867 9.08 89.04 9.08C88.1067 9.08 87.3733 9.36667 86.84 9.94C86.3067 10.5133 86.04 11.2933 86.04 12.28V15.72C86.04 16.6933 86.3067 17.47 86.84 18.05C87.3733 18.63 88.1067 18.92 89.04 18.92C89.9867 18.92 90.69 18.65 91.15 18.11C91.61 17.57 91.84 16.8933 91.84 16.08V15.72H94.44V16C94.44 17.64 93.97 18.93 93.03 19.87C92.09 20.81 90.76 21.28 89.04 21.28ZM98.6 21V7H101.24V12.56H101.6L106.14 7H109.52L103.68 13.9L109.72 21H106.24L101.6 15.32H101.24V21H98.6ZM113.12 21V7H118.88C119.76 7 120.537 7.17667 121.21 7.53C121.883 7.88333 122.41 8.38 122.79 9.02C123.17 9.66 123.36 10.42 123.36 11.3V11.58C123.36 12.4467 123.163 13.2033 122.77 13.85C122.377 14.4967 121.843 14.9967 121.17 15.35C120.497 15.7033 119.733 15.88 118.88 15.88H115.76V21H113.12ZM115.76 13.48H118.62C119.247 13.48 119.753 13.3067 120.14 12.96C120.527 12.6133 120.72 12.14 120.72 11.54V11.34C120.72 10.74 120.527 10.2667 120.14 9.92C119.753 9.57333 119.247 9.4 118.62 9.4H115.76V13.48ZM127.2 21V7H129.84V21H127.2ZM137.72 21V9.4H133.64V7H144.44V9.4H140.36V21H137.72Z" fill="#38BDF8"/>
<path d="M52.251 39L54.4105 32H55.8869L58.0464 39H57.1763L56.6401 37.2328H53.6573L53.1211 39H52.251ZM53.875 36.4672H56.4224L55.2174 32.5105H55.08L53.875 36.4672ZM62.4916 39.14C61.9703 39.14 61.5165 39.0468 61.1302 38.8605C60.7439 38.6742 60.4436 38.3967 60.2293 38.028C60.015 37.6593 59.9078 37.2035 59.9078 36.6607V32H60.745V36.6723C60.745 37.241 60.8974 37.6688 61.2023 37.9557C61.5072 38.2426 61.9369 38.386 62.4916 38.386C63.0463 38.386 63.476 38.2426 63.7809 37.9557C64.0858 37.6688 64.2382 37.241 64.2382 36.6723V32H65.0754V36.6607C65.0754 37.2035 64.9694 37.6593 64.7575 38.028C64.5456 38.3967 64.2452 38.6742 63.8565 38.8605C63.4678 39.0468 63.0129 39.14 62.4916 39.14ZM69.3414 39V32.7598H67.0884V32H72.4316V32.7598H70.1786V39H69.3414ZM76.7345 39.14C75.8971 39.14 75.2302 38.8983 74.7339 38.415C74.2376 37.9317 73.9894 37.2282 73.9894 36.3045V34.6955C73.9894 33.7718 74.2376 33.0683 74.7339 32.585C75.2302 32.1017 75.8971 31.86 76.7345 31.86C77.5719 31.86 78.2388 32.1017 78.7351 32.585C79.2314 33.0683 79.4796 33.7718 79.4796 34.6955V36.3045C79.4796 37.2282 79.2314 37.9317 78.7351 38.415C78.2388 38.8983 77.5719 39.14 76.7345 39.14ZM76.7345 38.386C77.3414 38.386 77.8112 38.2048 78.1437 37.8424C78.4762 37.48 78.6424 36.976 78.6424 36.3303V34.6697C78.6424 34.024 78.4762 33.52 78.1437 33.1576C77.8112 32.7952 77.3414 32.614 76.7345 32.614C76.1342 32.614 75.6662 32.7952 75.3303 33.1576C74.9945 33.52 74.8266 34.024 74.8266 34.6697V36.3303C74.8266 36.976 74.9945 37.48 75.3303 37.8424C75.6662 38.2048 76.1342 38.386 76.7345 38.386ZM81.882 39V32H83.48L85.3361 38.4692H85.4735L87.3296 32H88.9276V39H88.1162V32.5511H87.9788L86.1256 39H84.684L82.8308 32.5511H82.6934V39H81.882ZM94.0745 39.14C93.2371 39.14 92.5702 38.8983 92.0739 38.415C91.5776 37.9317 91.3294 37.2282 91.3294 36.3045V34.6955C91.3294 33.7718 91.5776 33.0683 92.0739 32.585C92.5702 32.1017 93.2371 31.86 94.0745 31.86C94.9119 31.86 95.5788 32.1017 96.0751 32.585C96.5714 33.0683 96.8196 33.7718 96.8196 34.6955V36.3045C96.8196 37.2282 96.5714 37.9317 96.0751 38.415C95.5788 38.8983 94.9119 39.14 94.0745 39.14ZM94.0745 38.386C94.6814 38.386 95.1512 38.2048 95.4837 37.8424C95.8162 37.48 95.9824 36.976 95.9824 36.3303V34.6697C95.9824 34.024 95.8162 33.52 95.4837 33.1576C95.1512 32.7952 94.6814 32.614 94.0745 32.614C93.4742 32.614 93.0062 32.7952 92.6703 33.1576C92.3345 33.52 92.1666 34.024 92.1666 34.6697V36.3303C92.1666 36.976 92.3345 37.48 92.6703 37.8424C93.0062 38.2048 93.4742 38.386 94.0745 38.386ZM100.631 39V32.7598H98.3784V32H103.722V32.7598H101.469V39H100.631ZM105.792 39V32H106.629V39H105.792ZM110.795 39L108.681 32H109.551L111.464 38.4908H111.59L113.503 32H114.373L112.259 39H110.795ZM116.422 39V32H120.73V32.7598H117.259V35.1043H120.45V35.8641H117.259V38.2402H120.776V39H116.422ZM126.622 39V32H127.459V35.1101H130.741V32H131.578V39H130.741V35.8699H127.459V39H126.622ZM136.712 39.14C136.19 39.14 135.737 39.0468 135.35 38.8605C134.964 38.6742 134.664 38.3967 134.449 38.028C134.235 37.6593 134.128 37.2035 134.128 36.6607V32H134.965V36.6723C134.965 37.241 135.117 37.6688 135.422 37.9557C135.727 38.2426 136.157 38.386 136.712 38.386C137.266 38.386 137.696 38.2426 138.001 37.9557C138.306 37.6688 138.458 37.241 138.458 36.6723V32H139.295V36.6607C139.295 37.2035 139.189 37.6593 138.977 38.028C138.766 38.3967 138.465 38.6742 138.077 38.8605C137.688 39.0468 137.233 39.14 136.712 39.14ZM141.514 39V38.2518H142.491V32.7482H141.514V32H145.022C145.43 32 145.791 32.0729 146.105 32.2186C146.419 32.3643 146.665 32.5688 146.841 32.8321C147.018 33.0954 147.106 33.4033 147.106 33.7558V33.8416C147.106 34.1663 147.044 34.4339 146.919 34.6443C146.795 34.8548 146.645 35.0185 146.469 35.1357C146.294 35.2528 146.124 35.337 145.958 35.3884V35.5258C146.124 35.5658 146.297 35.6455 146.477 35.765C146.658 35.8845 146.81 36.0499 146.933 36.2613C147.056 36.4727 147.118 36.7427 147.118 37.0713V37.1713C147.118 37.5532 147.027 37.8814 146.844 38.1557C146.662 38.43 146.413 38.6393 146.096 38.7836C145.779 38.9279 145.418 39 145.012 39H141.514ZM143.328 38.2402H144.923C145.361 38.2402 145.697 38.1371 145.931 37.9308C146.164 37.7245 146.281 37.4441 146.281 37.0894V37.0036C146.281 36.6489 146.165 36.3685 145.932 36.1622C145.7 35.9559 145.363 35.8528 144.923 35.8528H143.328V38.2402ZM143.328 35.093H144.946C145.352 35.093 145.674 34.9911 145.912 34.7872C146.15 34.5833 146.269 34.313 146.269 33.9764V33.8764C146.269 33.5379 146.151 33.2671 145.913 33.0642C145.676 32.8613 145.354 32.7598 144.946 32.7598H143.328V35.093Z" fill="#64748B"/>
</svg>
