<svg width="105" height="91" viewBox="0 0 105 91" fill="none" xmlns="http://www.w3.org/2000/svg">
<rect x="32.275" width="40" height="40" rx="20" fill="#22B1EC"/>
<path d="M46.275 26V27C46.275 27.2833 46.1792 27.5208 45.9875 27.7125C45.7959 27.9042 45.5584 28 45.275 28H44.275C43.9917 28 43.7542 27.9042 43.5625 27.7125C43.3709 27.5208 43.275 27.2833 43.275 27V19L45.375 13C45.475 12.7 45.6542 12.4583 45.9125 12.275C46.1709 12.0917 46.4584 12 46.775 12H57.775C58.0917 12 58.3792 12.0917 58.6375 12.275C58.8959 12.4583 59.075 12.7 59.175 13L61.275 19V27C61.275 27.2833 61.1792 27.5208 60.9875 27.7125C60.7959 27.9042 60.5584 28 60.275 28H59.275C58.9917 28 58.7542 27.9042 58.5625 27.7125C58.3709 27.5208 58.275 27.2833 58.275 27V26H46.275ZM46.075 17H58.475L57.425 14H47.125L46.075 17ZM45.275 19V24V19ZM47.775 23C48.1917 23 48.5459 22.8542 48.8375 22.5625C49.1292 22.2708 49.275 21.9167 49.275 21.5C49.275 21.0833 49.1292 20.7292 48.8375 20.4375C48.5459 20.1458 48.1917 20 47.775 20C47.3584 20 47.0042 20.1458 46.7125 20.4375C46.4209 20.7292 46.275 21.0833 46.275 21.5C46.275 21.9167 46.4209 22.2708 46.7125 22.5625C47.0042 22.8542 47.3584 23 47.775 23ZM56.775 23C57.1917 23 57.5459 22.8542 57.8375 22.5625C58.1292 22.2708 58.275 21.9167 58.275 21.5C58.275 21.0833 58.1292 20.7292 57.8375 20.4375C57.5459 20.1458 57.1917 20 56.775 20C56.3584 20 56.0042 20.1458 55.7125 20.4375C55.4209 20.7292 55.275 21.0833 55.275 21.5C55.275 21.9167 55.4209 22.2708 55.7125 22.5625C56.0042 22.8542 56.3584 23 56.775 23ZM45.275 24H59.275V19H45.275V24Z" fill="#002B3D"/>
<path d="M7.33457 69.1953C6.00645 69.1953 4.81341 68.9089 3.75547 68.3359C2.69753 67.763 1.86094 66.9215 1.2457 65.8115C0.630469 64.7015 0.322852 63.3424 0.322852 61.7344C0.322852 60.1133 0.635352 58.7461 1.26035 57.6328C1.88535 56.5195 2.72845 55.6781 3.78965 55.1084C4.85085 54.5387 6.03249 54.2539 7.33457 54.2539C8.23952 54.2539 9.07448 54.376 9.83945 54.6201C10.6044 54.8643 11.2766 55.2207 11.8561 55.6895C12.4355 56.1582 12.9042 56.7344 13.2623 57.418C13.6204 58.1016 13.845 58.8828 13.9361 59.7617H9.93223C9.89316 59.4492 9.81016 59.166 9.6832 58.9121C9.55625 58.6582 9.38861 58.4401 9.18027 58.2578C8.97194 58.0755 8.72292 57.9355 8.4332 57.8379C8.14349 57.7402 7.81634 57.6914 7.45176 57.6914C6.79421 57.6914 6.23594 57.8525 5.77695 58.1748C5.31797 58.4971 4.97129 58.9593 4.73691 59.5615C4.50254 60.1637 4.38535 60.888 4.38535 61.7344C4.38535 62.6198 4.50579 63.362 4.74668 63.9609C4.98757 64.5599 5.33424 65.0091 5.78672 65.3086C6.23919 65.6081 6.7877 65.7578 7.43223 65.7578C7.79681 65.7578 8.12233 65.709 8.40879 65.6113C8.69525 65.5137 8.9459 65.3737 9.16074 65.1914C9.37559 65.0091 9.54974 64.791 9.6832 64.5371C9.81667 64.2832 9.90618 64 9.95176 63.6875H13.9557C13.9101 64.306 13.7392 64.9375 13.443 65.582C13.1467 66.2266 12.7236 66.8223 12.1734 67.3691C11.6233 67.916 10.9462 68.3571 10.1422 68.6924C9.33815 69.0277 8.40228 69.1953 7.33457 69.1953ZM24.3443 69.1953C23.0227 69.1953 21.8264 68.9089 20.7555 68.3359C19.6845 67.763 18.8365 66.9215 18.2115 65.8115C17.5865 64.7015 17.274 63.3424 17.274 61.7344C17.274 60.1133 17.5865 58.7461 18.2115 57.6328C18.8365 56.5195 19.6845 55.6781 20.7555 55.1084C21.8264 54.5387 23.0227 54.2539 24.3443 54.2539C25.666 54.2539 26.8606 54.5387 27.9283 55.1084C28.996 55.6781 29.844 56.5195 30.4723 57.6328C31.1005 58.7461 31.4146 60.1133 31.4146 61.7344C31.4146 63.349 31.1005 64.7113 30.4723 65.8213C29.844 66.9313 28.996 67.7712 27.9283 68.3408C26.8606 68.9105 25.666 69.1953 24.3443 69.1953ZM24.3443 65.7578C25.0019 65.7578 25.5536 65.6032 25.9996 65.2939C26.4456 64.9847 26.7825 64.5306 27.0104 63.9316C27.2382 63.3327 27.3521 62.6003 27.3521 61.7344C27.3521 60.862 27.2382 60.1247 27.0104 59.5225C26.7825 58.9202 26.4456 58.4645 25.9996 58.1553C25.5536 57.846 25.0019 57.6914 24.3443 57.6914C23.6933 57.6914 23.1448 57.846 22.6988 58.1553C22.2529 58.4645 21.9143 58.9202 21.6832 59.5225C21.4521 60.1247 21.3365 60.862 21.3365 61.7344C21.3365 62.6003 21.4521 63.3327 21.6832 63.9316C21.9143 64.5306 22.2529 64.9847 22.6988 65.2939C23.1448 65.6032 23.6933 65.7578 24.3443 65.7578ZM41.7936 69.1953C40.4654 69.1953 39.2724 68.9089 38.2145 68.3359C37.1565 67.763 36.3199 66.9215 35.7047 65.8115C35.0895 64.7015 34.7818 63.3424 34.7818 61.7344C34.7818 60.1133 35.0943 58.7461 35.7193 57.6328C36.3443 56.5195 37.1874 55.6781 38.2486 55.1084C39.3098 54.5387 40.4915 54.2539 41.7936 54.2539C42.6985 54.2539 43.5335 54.376 44.2984 54.6201C45.0634 54.8643 45.7356 55.2207 46.315 55.6895C46.8945 56.1582 47.3632 56.7344 47.7213 57.418C48.0794 58.1016 48.304 58.8828 48.3951 59.7617H44.3912C44.3521 59.4492 44.2691 59.166 44.1422 58.9121C44.0152 58.6582 43.8476 58.4401 43.6393 58.2578C43.4309 58.0755 43.1819 57.9355 42.8922 57.8379C42.6025 57.7402 42.2753 57.6914 41.9107 57.6914C41.2532 57.6914 40.6949 57.8525 40.2359 58.1748C39.777 58.4971 39.4303 58.9593 39.1959 59.5615C38.9615 60.1637 38.8443 60.888 38.8443 61.7344C38.8443 62.6198 38.9648 63.362 39.2057 63.9609C39.4466 64.5599 39.7932 65.0091 40.2457 65.3086C40.6982 65.6081 41.2467 65.7578 41.8912 65.7578C42.2558 65.7578 42.5813 65.709 42.8678 65.6113C43.1542 65.5137 43.4049 65.3737 43.6197 65.1914C43.8346 65.0091 44.0087 64.791 44.1422 64.5371C44.2757 64.2832 44.3652 64 44.4107 63.6875H48.4146C48.3691 64.306 48.1982 64.9375 47.902 65.582C47.6057 66.2266 47.1826 66.8223 46.6324 67.3691C46.0823 67.916 45.4052 68.3571 44.6012 68.6924C43.7971 69.0277 42.8613 69.1953 41.7936 69.1953ZM54.985 66.4512V63.1113C55.2519 62.4993 55.5123 61.9476 55.7662 61.4561C56.0201 60.9645 56.318 60.4648 56.6598 59.957C57.0016 59.4492 57.4296 58.86 57.9439 58.1895L60.8346 54.4492H65.5123L59.4283 61.9395L59.0572 61.7832L54.985 66.4512ZM51.9869 69V54.4492H55.9322V57.5742L55.8541 61.7637L55.9322 63.6875V69H51.9869ZM61.1373 69L57.6314 63.1504L60.1314 60.2598L65.7857 69H61.1373ZM69.1725 69V54.4492H75.442C76.5227 54.4492 77.4684 54.6624 78.2789 55.0889C79.0895 55.5153 79.721 56.1159 80.1734 56.8906C80.6259 57.6654 80.8521 58.5703 80.8521 59.6055C80.8521 60.6471 80.621 61.5472 80.1588 62.3057C79.6966 63.0641 79.0488 63.6501 78.2154 64.0635C77.3821 64.4769 76.412 64.6836 75.3053 64.6836H71.5553V61.6172H74.5045C74.9732 61.6172 75.3736 61.5342 75.7057 61.3682C76.0377 61.2021 76.2916 60.9694 76.4674 60.6699C76.6432 60.3704 76.7311 60.0156 76.7311 59.6055C76.7311 59.1823 76.6432 58.8226 76.4674 58.5264C76.2916 58.2301 76.0377 58.0039 75.7057 57.8477C75.3736 57.6914 74.9732 57.6133 74.5045 57.6133H73.1178V69H69.1725ZM88.2428 54.4492V69H84.2975V54.4492H88.2428ZM91.7271 57.6328V54.4492H104.364V57.6328H100.018V69H96.0729V57.6328H91.7271Z" fill="#38BDF8"/>
<path d="M4.70094 87L6.86045 80H8.33683L10.4963 87H9.62625L9.09005 85.2328H6.10723L5.57103 87H4.70094ZM6.32493 84.4672H8.87235L7.66734 80.5105H7.52994L6.32493 84.4672ZM14.9415 87.14C14.4203 87.14 13.9665 87.0468 13.5801 86.8605C13.1938 86.6742 12.8935 86.3967 12.6792 86.028C12.4649 85.6593 12.3577 85.2035 12.3577 84.6607V80H13.1949V84.6723C13.1949 85.241 13.3474 85.6688 13.6522 85.9557C13.9571 86.2426 14.3869 86.386 14.9415 86.386C15.4962 86.386 15.926 86.2426 16.2308 85.9557C16.5357 85.6688 16.6882 85.241 16.6882 84.6723V80H17.5253V84.6607C17.5253 85.2035 17.4194 85.6593 17.2074 86.028C16.9955 86.3967 16.6952 86.6742 16.3065 86.8605C15.9178 87.0468 15.4628 87.14 14.9415 87.14ZM21.7913 87V80.7598H19.5383V80H24.8815V80.7598H22.6285V87H21.7913ZM29.1844 87.14C28.347 87.14 27.6802 86.8983 27.1838 86.415C26.6875 85.9317 26.4393 85.2282 26.4393 84.3045V82.6955C26.4393 81.7718 26.6875 81.0683 27.1838 80.585C27.6802 80.1017 28.347 79.86 29.1844 79.86C30.0218 79.86 30.6887 80.1017 31.185 80.585C31.6814 81.0683 31.9295 81.7718 31.9295 82.6955V84.3045C31.9295 85.2282 31.6814 85.9317 31.185 86.415C30.6887 86.8983 30.0218 87.14 29.1844 87.14ZM29.1844 86.386C29.7914 86.386 30.2611 86.2048 30.5936 85.8424C30.9261 85.48 31.0924 84.976 31.0924 84.3303V82.6697C31.0924 82.024 30.9261 81.52 30.5936 81.1576C30.2611 80.7952 29.7914 80.614 29.1844 80.614C28.5842 80.614 28.1161 80.7952 27.7803 81.1576C27.4444 81.52 27.2765 82.024 27.2765 82.6697V84.3303C27.2765 84.976 27.4444 85.48 27.7803 85.8424C28.1161 86.2048 28.5842 86.386 29.1844 86.386ZM34.3319 87V80H35.9299L37.786 86.4692H37.9234L39.7796 80H41.3775V87H40.5661V80.5511H40.4287L38.5755 87H37.134L35.2807 80.5511H35.1433V87H34.3319ZM46.5244 87.14C45.687 87.14 45.0202 86.8983 44.5238 86.415C44.0275 85.9317 43.7793 85.2282 43.7793 84.3045V82.6955C43.7793 81.7718 44.0275 81.0683 44.5238 80.585C45.0202 80.1017 45.687 79.86 46.5244 79.86C47.3618 79.86 48.0287 80.1017 48.525 80.585C49.0214 81.0683 49.2695 81.7718 49.2695 82.6955V84.3045C49.2695 85.2282 49.0214 85.9317 48.525 86.415C48.0287 86.8983 47.3618 87.14 46.5244 87.14ZM46.5244 86.386C47.1314 86.386 47.6011 86.2048 47.9336 85.8424C48.2661 85.48 48.4324 84.976 48.4324 84.3303V82.6697C48.4324 82.024 48.2661 81.52 47.9336 81.1576C47.6011 80.7952 47.1314 80.614 46.5244 80.614C45.9242 80.614 45.4561 80.7952 45.1203 81.1576C44.7844 81.52 44.6165 82.024 44.6165 82.6697V84.3303C44.6165 84.976 44.7844 85.48 45.1203 85.8424C45.4561 86.2048 45.9242 86.386 46.5244 86.386ZM53.0813 87V80.7598H50.8283V80H56.1715V80.7598H53.9185V87H53.0813ZM58.2419 87V80H59.0791V87H58.2419ZM63.2447 87L61.1309 80H62.001L63.9141 86.4908H64.0399L65.9531 80H66.8231L64.7094 87H63.2447ZM68.8719 87V80H73.1802V80.7598H69.7091V83.1043H72.9002V83.8641H69.7091V86.2402H73.226V87H68.8719ZM79.0719 87V80H79.9091V83.1101H83.1908V80H84.0279V87H83.1908V83.8699H79.9091V87H79.0719ZM89.1615 87.14C88.6403 87.14 88.1865 87.0468 87.8001 86.8605C87.4138 86.6742 87.1135 86.3967 86.8992 86.028C86.6849 85.6593 86.5777 85.2035 86.5777 84.6607V80H87.4149V84.6723C87.4149 85.241 87.5674 85.6688 87.8722 85.9557C88.1771 86.2426 88.6069 86.386 89.1615 86.386C89.7162 86.386 90.146 86.2426 90.4508 85.9557C90.7557 85.6688 90.9081 85.241 90.9081 84.6723V80H91.7453V84.6607C91.7453 85.2035 91.6394 85.6593 91.4274 86.028C91.2155 86.3967 90.9152 86.6742 90.5265 86.8605C90.1378 87.0468 89.6828 87.14 89.1615 87.14ZM93.9641 87V86.2518H94.9409V80.7482H93.9641V80H97.4718C97.8796 80 98.2406 80.0729 98.5549 80.2186C98.8692 80.3643 99.1147 80.5688 99.2913 80.8321C99.468 81.0954 99.5563 81.4033 99.5563 81.7558V81.8416C99.5563 82.1663 99.494 82.4339 99.3692 82.6443C99.2445 82.8548 99.0946 83.0185 98.9194 83.1357C98.7442 83.2528 98.5738 83.337 98.4082 83.3884V83.5258C98.5738 83.5658 98.7469 83.6455 98.9273 83.765C99.1077 83.8845 99.2596 84.0499 99.3829 84.2613C99.5063 84.4727 99.5679 84.7427 99.5679 85.0713V85.1713C99.5679 85.5532 99.4768 85.8814 99.2944 86.1557C99.112 86.43 98.8625 86.6393 98.5458 86.7836C98.2292 86.9279 97.8679 87 97.4621 87H93.9641ZM95.7781 86.2402H97.3731C97.8113 86.2402 98.1471 86.1371 98.3806 85.9308C98.614 85.7245 98.7308 85.4441 98.7308 85.0894V85.0036C98.7308 84.6489 98.6145 84.3685 98.382 84.1622C98.1495 83.9559 97.8132 83.8528 97.3731 83.8528H95.7781V86.2402ZM95.7781 83.093H97.3957C97.8016 83.093 98.1237 82.9911 98.3619 82.7872C98.6001 82.5833 98.7192 82.313 98.7192 81.9764V81.8764C98.7192 81.5379 98.6005 81.2671 98.3633 81.0642C98.1261 80.8613 97.8035 80.7598 97.3957 80.7598H95.7781V83.093Z" fill="#64748B"/>
</svg>
